# xmcd
#
# Track frame offsets:
#	150
#	14500
#	29305
#	43470
#	58830
#	75587
#	93455
#	112420
#	129875
#	149060
#	175610
#	198322
#	219027
#	232397
#	248565
#	270170
#	290350
#
# Disc length: 4133 seconds
#
# Revision: 1
# Processed by: cddbd v1.5.1PL0 Copyright (c) Steve Scherf et al.
# Submitted via: CDex 1.50Beta5
#
DISCID=f7102311
DTITLE=白盤 - the greatest hits of SHISEIDO
DYEAR=1900
DGENRE=Pop
TTITLE0=りりィ/オレンジ村から春へ
TTITLE1=尾崎亜美/マイピュアレディ
TTITLE2=ダウン・タウン・ブギウギ・バンド/サクセス
TTITLE3=堀内孝雄/君のひとみは10000ボルト
TTITLE4=松田聖子/裸足の季節
TTITLE5=クリスタルキング/蜃気楼
TTITLE6=忌野清志郎・坂本龍一/い・け・な・い ルージュマジック
TTITLE7=薬師丸ひろ子/Woman"Wの悲劇"より
TTITLE8=松任谷由実/メトロポリスの片隅で
TTITLE9=布袋寅泰/サレンダー
TTITLE10=オリジナル・ラブ/朝日のあたる道
TTITLE11=高橋幸宏/精一杯の微笑み
TTITLE12=ウルフルズ/コマソンNo.1
TTITLE13=山下久美子/TOKYO FANTASIA
TTITLE14=矢沢永吉/Still (Single Version)
TTITLE15=氷室京介/Girls Be Glamorous
TTITLE16=小林桂/流し目プレイ☆ (extended  version)
EXTD=
EXTT0=
EXTT1=
EXTT2=
EXTT3=
EXTT4=
EXTT5=
EXTT6=
EXTT7=
EXTT8=
EXTT9=
EXTT10=
EXTT11=
EXTT12=
EXTT13=
EXTT14=
EXTT15=
EXTT16=
PLAYORDER=
